<svg xmlns="http://www.w3.org/2000/svg" viewBox="0 0 32 32">
  <defs>
    <linearGradient id="bg" x1="0" y1="0" x2="32" y2="32" gradientUnits="userSpaceOnUse">
      <stop offset="0%" stop-color="#1c1917"/>
      <stop offset="100%" stop-color="#0c0a09"/>
    </linearGradient>
    <linearGradient id="flame" x1="16" y1="3" x2="16" y2="24" gradientUnits="userSpaceOnUse">
      <stop offset="0%" stop-color="#fb923c"/>
      <stop offset="100%" stop-color="#c2410c"/>
    </linearGradient>
    <linearGradient id="glow" x1="16" y1="13" x2="16" y2="23" gradientUnits="userSpaceOnUse">
      <stop offset="0%" stop-color="#fde68a"/>
      <stop offset="100%" stop-color="#f97316"/>
    </linearGradient>
  </defs>

  <!-- Arka plan -->
  <rect width="32" height="32" rx="7" fill="url(#bg)"/>

  <!-- Alev — dış -->
  <path d="M16 3
    C16 3 21.5 8.5 22 14
    C22.3 17 21 19.5 19.5 21
    C20 18.5 19 16 17.5 14.5
    C17.5 17 16.5 19 15 20.5
    C14 18.5 13.5 16 14 13.5
    C12.5 15.5 12 18 12.5 21
    C11 19.5 10 17 10 14.5
    C10 8.5 16 3 16 3Z"
    fill="url(#flame)"/>

  <!-- Alev — iç parlama -->
  <path d="M16 13
    C16 13 18.5 15.5 18.5 18.5
    C18.5 20.5 17.4 22 16 22
    C14.6 22 13.5 20.5 13.5 18.5
    C13.5 15.5 16 13 16 13Z"
    fill="url(#glow)" opacity="0.9"/>

  <!-- Ember yazısı -->
  <text x="16" y="29.5"
    font-family="system-ui, -apple-system, sans-serif"
    font-size="5.5"
    font-weight="700"
    text-anchor="middle"
    letter-spacing="0.5"
    fill="#f97316">EMBER</text>
</svg>
